<?xml version="1.0" encoding="utf-8"?>
<!-- Generator: Adobe Illustrator 19.0.0, SVG Export Plug-In . SVG Version: 6.00 Build 0)  -->
<svg version="1.1" id="Layer_1" xmlns="http://www.w3.org/2000/svg" xmlns:xlink="http://www.w3.org/1999/xlink" x="0px" y="0px"
	 viewBox="-245 377 120 40" style="enable-background:new -245 377 120 40;" xml:space="preserve">
<style type="text/css">
	.st0{display:none;}
	.st1{fill:#FFFFFF;}
</style>
<g id="Layer_3">
</g>
<g id="Layer_2" class="st0">
</g>
<g id="Layer_1_1_" class="st0">
</g>
<g>
	<g>
		<path class="st1" d="M-213.7,387.6l0,1.7l-1.4,0l0,8.8l-1.7,0l0-8.8l-1.4,0l0-1.7L-213.7,387.6z"/>
		<path class="st1" d="M-212.7,387.6l1.7,0l0,4.4l1,0l0-4.4l1.7,0l0,10.4l-1.7,0l0-4.4l-1,0l0,4.4l-1.7,0L-212.7,387.6z"/>
		<path class="st1" d="M-206.9,387.6l4.1,0l0,1.7l-2.3,0l0,2.7l2,0l0,1.7l-2,0l0,2.7l2.3,0l0,1.7l-4.1,0L-206.9,387.6z"/>
		<path class="st1" d="M-195.7,394.5l1.6-6.9l1.7,0l0,10.4l-1.7,0l0-4.8l-1,4.8l-1.2,0l-1.1-4.8l0,4.8l-1.7,0l0-10.4l1.7,0
			L-195.7,394.5z"/>
		<path class="st1" d="M-186.7,395.9c0,1.5-0.7,2.2-2.2,2.3c-1.5,0-2.2-0.7-2.2-2.3l0-6.2c0-1.5,0.7-2.2,2.2-2.2
			c1.5,0,2.2,0.7,2.2,2.2L-186.7,395.9z M-188.4,389.7c0-0.4-0.2-0.6-0.5-0.6h0c-0.3,0-0.5,0.2-0.5,0.6l0,6.2c0,0.4,0.2,0.6,0.5,0.6
			c0.3,0,0.5-0.2,0.5-0.6L-188.4,389.7z"/>
		<path class="st1" d="M-185.5,387.6l1.7,0l1.2,5.1l0-5.1l1.6,0l0,10.4l-1.7,0l-1.1-5l0,5l-1.7,0L-185.5,387.6z"/>
		<path class="st1" d="M-179.6,387.6l4.1,0l0,1.7l-2.3,0l0,2.7l2,0l0,1.7l-2,0l0,2.7l2.3,0l0,1.7l-4.1,0L-179.6,387.6z"/>
		<path class="st1" d="M-173.1,387.6l0.9,4l0.9-4l1.8,0l-1.8,5.9l0,0.1l0,4.4l-1.7,0l0-4.4l0-0.1l-1.8-5.9L-173.1,387.6z"/>
		<path class="st1" d="M-162.1,387.6l0,1.7l-1.4,0l0,8.8l-1.7,0l0-8.8l-1.4,0l0-1.7L-162.1,387.6z"/>
		<path class="st1" d="M-161.2,387.6l2.3,0c1.4,0,2.1,0.8,2.1,2.3l0,1.5c0,0.9-0.4,1.6-1.1,1.8l1.7,4.8l-1.9,0l-1.2-4.5h-0.1l0,4.5
			l-1.7,0L-161.2,387.6z M-159.5,389.3l0,2.7l0.2,0c0.2,0,0.3,0,0.4,0c0.2-0.1,0.3-0.3,0.3-0.6l0-1.5c0-0.4-0.2-0.6-0.5-0.6
			L-159.5,389.3z"/>
		<path class="st1" d="M-151.1,394.3l0.5,3.7l-1.7,0l-0.3-2.2l-1.3,0l-0.3,2.2l-1.7,0l0.5-3.7l1.1-6.7l2.2,0L-151.1,394.3z
			 M-152.9,394.2l-0.4-3.2l-0.4,3.2L-152.9,394.2z"/>
		<path class="st1" d="M-149.7,387.6l2.4,0c1.4,0,2.1,0.8,2.1,2.3l0,5.9c0,1.5-0.7,2.2-2.2,2.2l-2.3,0L-149.7,387.6z M-148,389.2
			l0,7.1h0.5c0.3,0,0.5-0.2,0.5-0.6l0-5.9c0-0.4-0.2-0.6-0.5-0.6H-148z"/>
		<path class="st1" d="M-144,387.6l4.1,0l0,1.7l-2.3,0l0,2.7l2,0l0,1.7l-2,0l0,2.7l2.3,0l0,1.7l-4.1,0L-144,387.6z"/>
		<path class="st1" d="M-138.8,387.6l2.3,0c1.4,0,2.1,0.8,2.1,2.3l0,1.5c0,0.9-0.4,1.6-1.1,1.8l1.7,4.8l-1.9,0l-1.2-4.5h-0.1l0,4.5
			l-1.7,0L-138.8,387.6z M-137.1,389.2l0,2.7h0.2c0.2,0,0.3,0,0.4,0c0.2-0.1,0.3-0.3,0.3-0.6l0-1.5c0-0.4-0.2-0.6-0.5-0.6H-137.1z"
			/>
		<path class="st1" d="M-133.2,389.7c0-1.5,0.7-2.2,2.2-2.2c1.5,0,2.2,0.7,2.2,2.2l0,1.5l-1.7,0l0-1.5c0-0.4-0.2-0.6-0.5-0.6h0
			c-0.3,0-0.5,0.2-0.5,0.6v0.9c0,0.4,0.4,1,1.3,1.6c1,0.7,1.4,1.5,1.4,2.4l0,1.3c0,1.5-0.7,2.3-2.2,2.3c-1.5,0-2.2-0.8-2.2-2.3
			l0-1.5l1.7,0l0,1.5c0,0.4,0.2,0.6,0.5,0.6c0.3,0,0.5-0.2,0.5-0.6l0-1.2c0-0.5-0.4-1-1.3-1.6c-1-0.7-1.4-1.5-1.4-2.5V389.7z"/>
	</g>
	<g>
		<path class="st1" d="M-206,401.4l1,0l0,5.8l-1,0L-206,401.4z"/>
		<path class="st1" d="M-203.1,401.4h0.9l0.6,2.8l0-2.8l0.9,0l0,5.8l-0.9,0l-0.6-2.8l0,2.8h-0.9L-203.1,401.4z"/>
		<path class="st1" d="M-196.8,407.1l-1.2,0l-0.6-3.7l-0.3-2.1l1,0l0.5,4.5l0.5-4.5l1,0l-0.3,2.1L-196.8,407.1z"/>
		<path class="st1" d="M-194.3,401.4l2.3,0l0,0.9l-1.3,0l0,1.5l1.1,0l0,0.9l-1.1,0l0,1.5l1.3,0l0,0.9l-2.3,0L-194.3,401.4z"/>
		<path class="st1" d="M-190.3,402.5c0-0.8,0.4-1.2,1.2-1.2c0.8,0,1.2,0.4,1.2,1.2l0,0.8l-1,0l0-0.8c0-0.2-0.1-0.3-0.3-0.3h0
			c-0.2,0-0.3,0.1-0.3,0.3l0,0.5c0,0.2,0.2,0.5,0.7,0.9c0.5,0.4,0.8,0.8,0.8,1.3l0,0.7c0,0.8-0.4,1.2-1.2,1.2
			c-0.8,0-1.2-0.4-1.2-1.2l0-0.8l1,0l0,0.8c0,0.2,0.1,0.3,0.3,0.3c0.2,0,0.3-0.1,0.3-0.3l0-0.6c0-0.3-0.2-0.6-0.7-0.9
			c-0.5-0.4-0.8-0.8-0.8-1.4L-190.3,402.5z"/>
		<path class="st1" d="M-183.7,401.4l0,0.9l-0.8,0l0,4.9l-1,0l0-4.9h-0.8l0-0.9L-183.7,401.4z"/>
		<path class="st1" d="M-180.1,405.2l0.9-3.8l0.9,0l0,5.8l-0.9,0l0-2.7l-0.6,2.7l-0.7,0l-0.6-2.7l0,2.7l-0.9,0l0-5.8l0.9,0
			L-180.1,405.2z"/>
		<path class="st1" d="M-176.4,401.4l2.3,0l0,0.9l-1.3,0l0,1.5l1.1,0l0,0.9l-1.1,0l0,1.5l1.3,0l0,0.9l-2.3,0L-176.4,401.4z"/>
		<path class="st1" d="M-172.3,401.4l0.9,0l0.6,2.8l0-2.8l0.9,0l0,5.8l-0.9,0l-0.6-2.8l0,2.8l-0.9,0L-172.3,401.4z"/>
		<path class="st1" d="M-165.7,401.4l0,0.9h-0.8l0,4.9l-1,0l0-4.9l-0.8,0l0-0.9L-165.7,401.4z"/>
		<path class="st1" d="M-160.1,403.8l1.2,0l0,2.2c0,0.8-0.4,1.2-1.2,1.2c-0.8,0-1.2-0.4-1.2-1.2l0-3.5c0-0.8,0.4-1.2,1.2-1.2
			c0.8,0,1.2,0.4,1.2,1.2l0,0.8l-1,0l0-0.8c0-0.2-0.1-0.3-0.3-0.3h0c-0.2,0-0.3,0.1-0.3,0.3l0,3.5c0,0.2,0.1,0.3,0.3,0.3
			c0.2,0,0.3-0.1,0.3-0.3l0-1.3h-0.2L-160.1,403.8z"/>
		<path class="st1" d="M-157,401.3l1.3,0c0.8,0,1.2,0.4,1.2,1.2l0,0.9c0,0.5-0.2,0.9-0.6,1l0.9,2.7l-1,0l-0.7-2.5h-0.1l0,2.5l-1,0
			L-157,401.3z M-156,402.3l0,1.5h0.1c0.1,0,0.2,0,0.2,0c0.1,0,0.2-0.2,0.2-0.3l0-0.9c0-0.2-0.1-0.3-0.3-0.3H-156z"/>
		<path class="st1" d="M-150.2,406c0,0.8-0.4,1.2-1.2,1.2c-0.8,0-1.2-0.4-1.2-1.2l0-3.5c0-0.8,0.4-1.2,1.2-1.2
			c0.8,0,1.2,0.4,1.2,1.2L-150.2,406z M-151.2,402.5c0-0.2-0.1-0.3-0.3-0.3h0c-0.2,0-0.3,0.1-0.3,0.3l0,3.5c0,0.2,0.1,0.3,0.3,0.3
			c0.2,0,0.3-0.1,0.3-0.3L-151.2,402.5z"/>
		<path class="st1" d="M-145.9,405.9c0,0.8-0.4,1.2-1.2,1.2c-0.8,0-1.2-0.4-1.2-1.2l0-4.6l1,0l0,4.6c0,0.2,0.1,0.3,0.3,0.3
			c0.2,0,0.3-0.1,0.3-0.3l0-4.6l1,0L-145.9,405.9z"/>
		<path class="st1" d="M-144,401.3l1.3,0c0.8,0,1.2,0.4,1.2,1.2l0,0.9c0,0.6-0.3,1-0.8,1.2c-0.1,0-0.3,0.1-0.6,0.1h-0.1l0,2.4l-1,0
			L-144,401.3z M-143,402.3l0,1.5h0.1c0.1,0,0.2,0,0.2,0c0.1,0,0.2-0.2,0.2-0.3l0-0.9c0-0.2-0.1-0.3-0.3-0.3H-143z"/>
	</g>
	<g>
		<polygon class="st1" points="-227,387.6 -227,383.7 -236.5,383.7 -236.5,387.6 -234.2,387.6 -234.2,386 -232.9,386 -232.9,397 
			-232.9,400.3 -232.9,410 -234.2,410 -234.2,408.4 -236.5,408.4 -236.5,412.3 -227,412.3 -227,408.4 -229.3,408.4 -229.3,410 
			-230.6,410 -230.6,400.3 -230.6,397 -230.6,386 -229.3,386 -229.3,387.6 		"/>
		<polygon class="st1" points="-226.4,390.8 -226.4,405.2 -225.2,405.2 -225.2,407.5 -229.8,407.5 -229.8,405.2 -228.7,405.2 
			-228.7,398 -231.1,407.5 -232.4,407.5 -234.8,398 -234.8,405.2 -233.7,405.2 -233.7,407.5 -238.3,407.5 -238.3,405.2 
			-237.2,405.2 -237.2,390.8 -238.3,390.8 -238.3,388.5 -234.8,388.5 -231.8,400.6 -228.7,388.5 -225.2,388.5 -225.2,390.8 		"/>
		<path class="st1" d="M-224,381.5v32.9h-15.6v-32.9H-224 M-223.4,381h-0.5h-15.6h-0.5v0.5v32.9v0.5h0.5h15.6h0.5v-0.5v-32.9V381
			L-223.4,381z"/>
		<path class="st1" d="M-223,380.5v35.1h-17.6v-35.1H-223 M-222.5,379.9h-0.5h-17.6h-0.5v0.5v35.1v0.5h0.5h17.6h0.5v-0.5v-35.1
			V379.9L-222.5,379.9z"/>
	</g>
</g>
</svg>
